<?xml version="1.0" encoding="utf-8"?>
<!-- Generator: Adobe Illustrator 19.2.1, SVG Export Plug-In . SVG Version: 6.00 Build 0)  -->
<svg version="1.1" id="Capa_1" xmlns="http://www.w3.org/2000/svg" xmlns:xlink="http://www.w3.org/1999/xlink" x="0px" y="0px"
	 viewBox="0 0 254.272 213.53" style="enable-background:new 0 0 254.272 213.53;" xml:space="preserve">
<style type="text/css">
	.st0{fill:#FEE501;}
	.st1{fill:#FE031A;}
	.st2{fill:#203A8D;}
</style>
<path id="Amarillo" class="st0" d="M20.78,153.073c-5.042-0.231-8.401-2.052-9.602-6.525c-3.403-12.681-6.904-25.343-9.914-38.119
	c-2.04-8.66-0.14-11.921,8.058-14.991C47.085,79.3,85.898,68.882,125.416,61.027c31.559-6.273,63.338-10.593,95.609-10.316
	c2.498,0.022,4.996,0.069,7.493,0.121c7.621,0.158,9.764,1.648,12.493,8.912c3.098,8.247,6.13,16.519,9.176,24.785
	c2.663,7.227,1.052,9.885-6.703,11.406c-26.592,5.216-53.144,10.65-79.773,15.672c-41.459,7.82-81.541,20.421-121.258,34.346
	c-5.646,1.979-11.285,3.979-16.952,5.896C23.785,152.43,21.986,152.766,20.78,153.073z"/>
<path id="Rojo" class="st1" d="M231.264,108.05c6.558-0.09,9.227,1.742,11.087,7.257c3.663,10.859,7.319,21.72,10.921,32.6
	c2.406,7.267,0.591,11.692-6.763,14.68c-13.228,5.374-26.547,10.537-39.941,15.485c-28.667,10.589-57.178,21.553-85.183,33.808
	c-8.369,3.662-13.841,1.247-16.683-7.418c-5.278-16.095-10.41-32.239-15.567-48.374c-2.533-7.926-0.704-11.95,6.932-14.914
	c20.343-7.897,41.519-12.94,62.675-18.002c23.114-5.53,46.425-10.153,69.741-14.739C229.622,108.209,230.786,108.114,231.264,108.05
	z"/>
<path id="Azul" class="st2" d="M175.369,0.638c8.994,0,17.989,0,26.983,0c5.585,0,9.557,2.662,11.887,7.608
	c3.682,7.819,7.257,15.69,10.733,23.603c1.641,3.736,0.319,5.472-4.56,5.887c-9.126,0.777-18.257,1.667-27.404,1.995
	C146.83,41.384,101.83,49.938,57.46,62.378c-8.778,2.461-10.653,1.325-13.686-7.165c-2.796-7.825-5.561-15.662-8.374-23.481
	c-1.98-5.503-1.282-7.423,4.066-9.784c9.011-3.978,18.516-6.487,28.042-8.795C102.94,4.572,138.974,0.84,175.369,0.638z"/>
</svg>
