<?xml version="1.0" encoding="utf-8"?>
<!-- Generator: Adobe Illustrator 25.1.0, SVG Export Plug-In . SVG Version: 6.00 Build 0)  -->
<svg version="1.1"
	 id="svg8" inkscape:version="1.0.2-2 (e86c870879, 2021-01-15)" sodipodi:docname="UEFA Women&apos;s Champions League logo.svg" xmlns:cc="http://creativecommons.org/ns#" xmlns:dc="http://purl.org/dc/elements/1.1/" xmlns:inkscape="http://www.inkscape.org/namespaces/inkscape" xmlns:rdf="http://www.w3.org/1999/02/22-rdf-syntax-ns#" xmlns:sodipodi="http://sodipodi.sourceforge.net/DTD/sodipodi-0.dtd" xmlns:svg="http://www.w3.org/2000/svg"
	 xmlns="http://www.w3.org/2000/svg" xmlns:xlink="http://www.w3.org/1999/xlink" x="0px" y="0px" viewBox="0 0 1116.1 143.4"
	 style="enable-background:new 0 0 1116.1 143.4;" xml:space="preserve">
<sodipodi:namedview  bordercolor="#666666" borderopacity="1.0" id="base" inkscape:current-layer="layer1" inkscape:cx="53.118334" inkscape:cy="-1.6810012" inkscape:document-rotation="0" inkscape:document-units="mm" inkscape:pageopacity="0.0" inkscape:pageshadow="2" inkscape:showpageshadow="false" inkscape:window-height="745" inkscape:window-maximized="1" inkscape:window-width="1366" inkscape:window-x="-8" inkscape:window-y="-8" inkscape:zoom="7.9195959" pagecolor="#ffffff" showgrid="false" units="px">
	</sodipodi:namedview>
<g id="layer1" inkscape:groupmode="layer" inkscape:label="Capa 1">
	<path id="path2" d="M1015.3,0c-7,0-12.9,5.9-12.9,13c0,7.3,5.9,13,12.9,13c7.2,0,13-6.1,13-13C1028.4,5.7,1022.5,0,1015.3,0z
		 M102.4,6.1c-26.6,3.3-52.3,8.1-78,15.6c-3.4,1.1-5.4,4.8-4.6,8.1c1.9,7.4,2.8,11.1,4.7,18.6c0.8,3.1,4,4.8,7.2,3.7
		C58,44,84.4,38.5,111.6,34.5c3.1-0.4,4.8-3.6,3.7-6.9c-2.4-6.8-3.6-10.2-6.1-17C108.1,7.7,105.3,5.8,102.4,6.1z M644.9,6.9
		c-6.7,0-19.4,3.7-25.3,8.1v108.4h25.3V6.9z M929.7,6.9c-6.5,0-19.4,3.7-25.3,8.1v103.5c8.4,3.9,22.3,6.6,36.6,6.6
		c29.4,0,47.5-17.7,47.5-48.4c0-21.9-10.2-39.3-35.1-39.3c-7.9,0-16.6,3.4-23.8,9.6V6.9z M210.7,11c-12.2,0-22.6,1.4-36.3,3.4v109
		h41.2c22.4,0,42.2-13.2,42.2-32.9c0-15-6.5-24.3-21.7-28.7c9.9-3.9,15.4-11,15.4-21.6C251.4,21.6,233.3,11,210.7,11z M210.7,32.2
		c10.5,0,15.4,4.9,15.4,11.8c0,7.3-4.7,11.5-14.7,11.5H200V33.1C203.5,32.6,207.2,32.2,210.7,32.2z M491.2,37.1
		c-26.4,0-46.9,15.5-46.9,45.1c0,27.3,16.9,42.9,42.7,42.9c7.5,0,17.1-1.7,26.3-5.4l-4.5-20.3c-6.2,2.2-11.2,3-15.6,3
		c-15.9,0-22.3-8.3-22.3-21.8c0-13.3,6.9-22.1,23.8-22.1c2.7,0,7.4,0.7,10.2,1.5c3.8-4.2,7.4-11.6,8.4-20.1
		C505.2,38.1,498.5,37.1,491.2,37.1z M561.8,37.1c-25.6,0-43.7,16.9-43.7,43.9c0,26.7,17.1,44.1,43.7,44.1
		c26.4,0,43.7-16.9,43.7-44.1C605.4,54.7,588.4,37.1,561.8,37.1z M702.8,37.1c-25.6,0-43.7,16.9-43.7,43.9
		c0,26.7,17.1,44.1,43.7,44.1c26.4,0,43.7-16.9,43.7-44.1C746.5,54.7,729.4,37.1,702.8,37.1z M397.9,37.3c-13.9,0-30.9,3.9-41.5,11
		l-0.2,75.1h25.3V60.1c3.2-0.8,6.9-1.4,10.7-1.4c10.2,0,16.1,4.6,16.1,13.5v51.2h25.1V63.3C433.4,46.9,417.2,37.3,397.9,37.3
		L397.9,37.3z M798.2,37.3c-13.2,0-28.9,3.9-39,11l-0.2,75.1h25.3V60.1c3.2-0.8,6.9-1.4,10.7-1.4c10,0,15.7,4.6,15.7,13.5v51.2h24.9
		v-50c0-4.4-0.7-8.4-2-12.1c3.7-1.5,8.2-2.5,12.9-2.5c10,0,15.7,4.6,15.7,13.5v51.2h24.9V63.3c0-16.2-14.2-26-32.5-26
		c-10,0-21.9,3.7-30.5,9.3C817.7,40.8,808.7,37.3,798.2,37.3L798.2,37.3z M1015.5,37.3c-4.9,0-9.2,0.9-12.7,2.4v83.7h25.3V39.7
		C1024.5,38.1,1020.4,37.3,1015.5,37.3L1015.5,37.3z M303.1,37.5c-11,0-21.2,2.7-31.6,6.6l2,6.1c2.7,7.4,5.9,10,9.9,10
		c1.7,0,14.6-2.2,19.4-2.2c9.2,0,13.4,2.7,13.9,13.2c-27.6,0.8-50.9,6.8-50.9,30.9c0,16,14.6,23.3,32.1,23.3
		c19.7,0,34.3-3.7,43.3-10.6V70.2C341.3,46.6,327.2,37.5,303.1,37.5L303.1,37.5z M1077.9,37.5c-11,0-21.2,2.7-31.6,6.6l2,6.1
		c2.7,7.4,5.9,10,9.9,10c1.7,0,14.6-2.2,19.4-2.2c9.2,0,13.4,2.7,13.9,13.2c-27.6,0.8-50.9,6.8-50.9,30.9c0,16,14.6,23.3,32.1,23.3
		c19.7,0,34.3-3.7,43.3-10.6V70.2C1116.1,46.6,1102,37.5,1077.9,37.5L1077.9,37.5z M124.6,47.4C83,52.7,42.5,63,4,80.1
		c-2.8,1.3-4.5,4.9-3.9,8c1.5,8,2.3,11.9,3.8,19.9c0.7,3.4,3.8,5,7,3.4c39.1-17.9,80.3-29.3,122.6-36.1c2.7-0.4,4.1-3.5,3-6.7
		c-2.1-6.6-3.2-9.9-5.4-16.4C130.1,49.1,127.4,47.1,124.6,47.4z M942.7,58.7c12.9,0,20.9,5.6,20.9,21.1c0,13.5-6.4,25-21.1,25
		c-4,0-8.4-0.3-12.9-1V61.4C933.4,59.7,937.5,58.7,942.7,58.7z M561.8,59.1c11.7,0,18.4,8.1,18.4,22c0,14.5-6.7,22.1-18.4,22.1
		c-11.5,0-18.4-7.6-18.4-22.1C543.4,67.2,550.4,59.1,561.8,59.1z M702.8,59.1c11.7,0,18.4,8.1,18.4,22c0,14.5-6.7,22.1-18.4,22.1
		c-11.5,0-18.4-7.6-18.4-22.1C684.4,67.2,691.4,59.1,702.8,59.1z M200,76.6h13.4c11.2,0,16.9,3.7,16.9,12.7
		c0,8.3-6.2,12.7-17.1,12.7H200V76.6z M311.8,87.3h4.9v14.5c-2.5,2.2-7.9,4.2-14.4,4.2c-8.2,0-12.2-2.2-12.2-8.3
		C290.1,89.8,300.5,87.3,311.8,87.3z M1086.6,87.3h4.9v14.5c-2.5,2.2-7.9,4.2-14.4,4.2c-8.2,0-12.2-2.2-12.2-8.3
		C1064.9,89.8,1075.2,87.3,1086.6,87.3z M124.1,91.8c-26,5.6-51.4,12.4-76.6,21.1c-3.2,1.2-5,4.5-4.1,7.6c2,7.4,3,11.1,5,18.5
		c1,3.5,4.9,5.3,8.5,3.9c25.2-9,50.6-16.9,76.5-23.2c2.5-0.6,3.7-3.5,2.8-6.5c-2-6.7-3.1-10-5.2-16.6C130,93.3,127,91.2,124.1,91.8z
		"/>
</g>
</svg>
